<svg xmlns="http://www.w3.org/2000/svg" viewBox="403 -128 100 100"><defs><style>.a{fill:none;}</style></defs><g transform="translate(403 -128)"><rect class="a" width="100" height="100"/><path class="a" d="M0,0H23a0,0,0,0,1,0,0V51.5A11.5,11.5,0,0,1,11.5,63h0A11.5,11.5,0,0,1,0,51.5V0A0,0,0,0,1,0,0Z" transform="translate(39 19)"/><path class="a" d="M0,0H23a0,0,0,0,1,0,0V51.5A11.5,11.5,0,0,1,11.5,63h0A11.5,11.5,0,0,1,0,51.5V0A0,0,0,0,1,0,0Z" transform="translate(39 19)"/><rect width="49.566" height="6.94" rx="3.47" transform="translate(24.92 46.324)"/><rect width="40.313" height="6.94" rx="3.47" transform="translate(25.753 44.841) rotate(45)"/><rect width="40.313" height="6.94" rx="3.47" transform="translate(20.846 49.443) rotate(-45)"/></g></svg>