<svg xmlns="http://www.w3.org/2000/svg" viewBox="573 -262 100 47"><defs><style>.a{fill:none;}</style></defs><g transform="translate(573 -262)"><rect class="a" width="100" height="47"/><rect class="a" width="100" height="47"/><g transform="translate(45.802 8.527)"><g transform="translate(-2.337 6.93)"><path d="M0,46.835A1.054,1.054,0,0,1,1.135,45.7H4.8c2.967,0,4.8,1.047,5.586,3.4a13.265,13.265,0,0,1,.436,4.015,13.684,13.684,0,0,1-.436,4.015c-.786,2.357-2.618,3.4-5.586,3.4H1.135A1.054,1.054,0,0,1,0,59.4ZM2.706,58.181h1.92c1.746,0,2.793-.611,3.229-2.007A8.179,8.179,0,0,0,8.2,53.119a12.459,12.459,0,0,0-.262-3.142c-.436-1.4-1.571-2.007-3.229-2.007H2.706c-.087,0-.087.087-.087.175v9.95C2.531,58.181,2.618,58.181,2.706,58.181Z" transform="translate(0 -45.525)"/><path d="M18.057,51.784h0A3.049,3.049,0,0,1,20.762,50.3a2.672,2.672,0,0,1,1.309.262,1.224,1.224,0,0,1,.7.96,1.145,1.145,0,0,1-1.222,1.222,1.107,1.107,0,0,1-.524-.087,4.5,4.5,0,0,0-.96-.175c-1.309,0-1.92,1.047-1.92,2.618v4.626a1.217,1.217,0,0,1-1.222,1.309A1.171,1.171,0,0,1,15.7,59.726V51.784a1.217,1.217,0,0,1,1.222-1.309,1.154,1.154,0,0,1,1.135,1.309Z" transform="translate(-1.997 -46.111)"/><path d="M29,47.071A1.382,1.382,0,0,1,30.4,45.5c.786,0,1.135.436,1.484,1.309l3.666,8.2h.087l3.578-8.2c.349-.873.7-1.309,1.484-1.309a1.382,1.382,0,0,1,1.4,1.571V59.29a1.124,1.124,0,0,1-1.135,1.222,1.145,1.145,0,0,1-1.222-1.222V51.173h-.087l-2.706,6.11c-.436.873-.786,1.135-1.4,1.135s-1.047-.262-1.4-1.135l-2.706-6.11h-.087V59.29a1.125,1.125,0,0,1-1.135,1.222A1.145,1.145,0,0,1,29,59.29Z" transform="translate(-3.689 -45.5)"/><path d="M47.649,58.43A9.817,9.817,0,0,1,47.3,55.9a7.608,7.608,0,0,1,.349-2.618,4.21,4.21,0,0,1,4.277-2.88A4.168,4.168,0,0,1,56.2,53.28a10.417,10.417,0,0,1,.349,2.531.783.783,0,0,1-.873.873H49.831c-.087,0-.175,0-.175.087a2.549,2.549,0,0,0,.175.786,2.224,2.224,0,0,0,2.357,1.571,3.819,3.819,0,0,0,2.182-.7,1.551,1.551,0,0,1,.873-.349,1.008,1.008,0,0,1,1.047,1.047,1.1,1.1,0,0,1-.524.96,5.54,5.54,0,0,1-3.753,1.222C49.744,61.31,48.173,60.263,47.649,58.43ZM53.933,53.8a1.928,1.928,0,0,0-2.007-1.309A2.239,2.239,0,0,0,49.831,53.8a2.582,2.582,0,0,0-.175.873c0,.087,0,.087.175.087h4.1a.085.085,0,0,0,.087-.087A1.436,1.436,0,0,0,53.933,53.8Z" transform="translate(-6.017 -46.123)"/></g><g transform="translate(-39.31)"><path d="M31.087,23.133a26.657,26.657,0,0,1,3.854,2.98,4.821,4.821,0,0,0-.562,3.921,4.759,4.759,0,0,0,3.693,3.294A4.83,4.83,0,0,0,40.561,24a5.045,5.045,0,0,0-4.014.549A32.69,32.69,0,0,0,33.175,21.8h-.08a13.7,13.7,0,0,0-1.927,1.1C31.007,22.976,31.007,23.133,31.087,23.133Zm8.591,8.078a2.7,2.7,0,0,1-3.212-3.137,2.63,2.63,0,0,1,2.088-2.039,2.7,2.7,0,0,1,3.212,3.137A2.531,2.531,0,0,1,39.678,31.211Z" transform="translate(-14.788 -4.704)"/><path d="M24.289,14.273a31.109,31.109,0,0,1-6.263-4.235A4.671,4.671,0,0,1,16.581,7.45a4.632,4.632,0,0,1,1.285-4A4.638,4.638,0,0,1,21.639,2.2a5.412,5.412,0,0,1,2.328.941A4.53,4.53,0,0,1,24.851,4a1.117,1.117,0,0,0,.883.471h0A1.013,1.013,0,0,0,26.617,4a5.75,5.75,0,0,1,.642-.706,4.455,4.455,0,0,1,2.489-1.1A4.906,4.906,0,0,1,33.6,3.451a4.559,4.559,0,0,1,1.285,4,4.671,4.671,0,0,1-1.445,2.588,35.488,35.488,0,0,1-7.387,4.941l-.161.078-.08.078c-1.2.706-1.525.863-2.248,1.255a25.776,25.776,0,0,0-4.095,2.9,5.461,5.461,0,0,0-3.854-.706,6.2,6.2,0,0,0-2.73,1.49L11.121,21.8a1.118,1.118,0,0,0,0,1.568l.08.078h0l1.044,1.02a1.184,1.184,0,0,0,1.606,0,1.118,1.118,0,0,0,0-1.568l-.321-.314,1.044-1.019A3.378,3.378,0,0,1,15.7,20.86a3.091,3.091,0,0,1,3.372,1.1,3.143,3.143,0,0,1-.4,3.686l-.963.941-.241-.235h0l-.08-.078a1.184,1.184,0,0,0-1.606,0,1.171,1.171,0,0,0,0,1.568l1.124,1.1a1.184,1.184,0,0,0,1.606,0l1.847-1.8a4.9,4.9,0,0,0,.723-6.2A25.162,25.162,0,0,1,25.894,17.8c.883-.471,1.525-.863,2.248-1.255a31.95,31.95,0,0,0,7.065-4.862,7.2,7.2,0,0,0,2.007-3.451,6.592,6.592,0,0,0-1.847-6.117A6.962,6.962,0,0,0,30.551.157a6.4,6.4,0,0,0-4.817,1.568A7.04,7.04,0,0,0,21.157,0,6.82,6.82,0,0,0,16.34,1.961,6.507,6.507,0,0,0,14.654,8.7,6.769,6.769,0,0,0,16.42,11.45a30.343,30.343,0,0,0,5.941,4.235h.161c.8-.549,1.525-.941,1.847-1.176A.284.284,0,0,0,24.289,14.273ZM16.42,26.036Z" transform="translate(-10.8)"/></g></g></g></svg>