<svg xmlns="http://www.w3.org/2000/svg" viewBox="1253 -128 100 100"><defs><style>.a{fill:none;}</style></defs><g transform="translate(1253 -128)"><rect class="a" width="100" height="100"/><rect class="a" width="100" height="100"/><path d="M.276,51.858a3.053,3.053,0,0,1,0-6.106H59.189a3.053,3.053,0,1,1,0,6.106Zm0-23.144a3.053,3.053,0,0,1,0-6.106H59.189a3.053,3.053,0,1,1,0,6.106Zm0-23.144a3.053,3.053,0,0,1,0-6.106H59.189a3.053,3.053,0,1,1,0,6.106Z" transform="translate(80.194 74.464) rotate(180)"/></g></svg>